<?xml version="1.0" standalone="no"?>
<!DOCTYPE svg PUBLIC "-//W3C//DTD SVG 20010904//EN"
 "http://www.w3.org/TR/2001/REC-SVG-20010904/DTD/svg10.dtd">
<svg version="1.0" xmlns="http://www.w3.org/2000/svg"
 width="100.000000pt" height="100.000000pt" viewBox="0 0 100.000000 100.000000"
 preserveAspectRatio="xMidYMid meet">
<metadata>
Created by potrace 1.16, written by Peter Selinger 2001-2019
</metadata>
<g transform="translate(0.000000,100.000000) scale(0.100000,-0.100000)"
fill="#000000" stroke="none">
<path d="M390 959 c-140 -63 -200 -228 -135 -368 l26 -54 -46 -58 c-80 -102
-123 -211 -95 -244 7 -8 25 -15 40 -15 26 0 28 -3 38 -66 6 -36 18 -77 27 -90
l15 -24 240 0 240 0 15 24 c9 13 21 54 27 90 10 63 12 66 38 66 15 0 33 7 40
15 28 33 -15 142 -95 244 l-46 58 26 54 c86 185 -43 389 -245 389 -44 0 -80
-7 -110 -21z"/>
</g>
</svg>
