<?xml version="1.0" standalone="no"?>
<!DOCTYPE svg PUBLIC "-//W3C//DTD SVG 20010904//EN"
 "http://www.w3.org/TR/2001/REC-SVG-20010904/DTD/svg10.dtd">
<svg version="1.0" xmlns="http://www.w3.org/2000/svg"
 width="100.000000pt" height="100.000000pt" viewBox="0 0 100.000000 100.000000"
 preserveAspectRatio="xMidYMid meet">
<metadata>
Created by potrace 1.16, written by Peter Selinger 2001-2019
</metadata>
<g transform="translate(0.000000,100.000000) scale(0.100000,-0.100000)"
fill="#000000" stroke="none">
<path d="M390 959 c-140 -63 -200 -228 -135 -368 l26 -54 -46 -58 c-80 -102
-123 -211 -95 -244 7 -8 25 -15 40 -15 26 0 28 -3 38 -66 6 -36 18 -77 27 -90
l15 -24 240 0 240 0 15 24 c9 13 21 54 27 90 10 63 12 66 38 66 15 0 33 7 40
15 28 33 -15 142 -95 244 l-46 58 26 54 c86 185 -43 389 -245 389 -44 0 -80
-7 -110 -21z m188 -119 c96 -59 96 -201 0 -260 -43 -26 -113 -26 -156 0 -130
79 -74 280 78 280 27 0 58 -8 78 -20z m-125 -403 c45 -9 113 -2 159 17 14 6
17 -2 23 -58 4 -37 5 -94 3 -128 -4 -53 -9 -65 -36 -89 -56 -51 -148 -51 -204
0 -27 24 -32 36 -36 89 -2 34 -1 91 3 128 6 56 9 64 23 58 10 -3 38 -11 65
-17z"/>
</g>
</svg>
